# generated from PmQm by Jehee Lee
:FULLY-SPECIFIED
:DEGREES
178
root 15.8696 38.7204 1.95231 38.3559 88.3772 45.0521
RightUpLeg -7.87672 5.15062 -4.89421
RightLeg 36.303 4.42166 -4.3706
RightFoot -1.84777 -1.08749 11.0151
RightToes 4.07452e-010 -1.59028e-015 9.93923e-017
Spine -11.2648 -2.53404 -12.3684
Spine1 15.7405 -4.7074 4.98462
HEad 11.8912 7.39449 -9.88834
LeftShoulder1 9.93923e-017 -0 1.22299e-017
LeftArm -13.6339 47.6413 -13.5798
LeftForeArm -125.105 -73.8876 108.573
LeftHand 1.65183 9.66295 12.511
RightShoulder 1.98785e-016 -4.96962e-017 1.55301e-017
RightArm -19.8877 -45.1864 15.2962
RightForeArm -66.8682 60.4806 -75.8876
RightHand 4.49437 -20.5063 -19.7646
LeftUpLeg 3.89758 -0.0419098 -5.09635
LeftLeg 18.1344 -1.76601 5.43296
LeftFoot -14.3083 -0.0473908 -0.736489
LeftToes 1.53707e-010 -1.11459e-010 1.58109e-011
179
root 15.8656 38.7031 2.02675 48.494 88.7368 55.5749
RightUpLeg -9.1782 4.5483 -4.60214
RightLeg 38.1576 4.80341 -4.39726
RightFoot -1.57128 -1.04495 10.333
RightToes 4.07452e-010 -1.59028e-015 9.93923e-017
Spine -10.5851 -2.56753 -12.3143
Spine1 16.5695 -4.83461 4.62611
HEad 10.936 8.73434 -11.33
LeftShoulder1 9.93923e-017 -0 1.22299e-017
LeftArm -13.7876 49.0076 -20.7962
LeftForeArm -127.145 -73.639 112.589
LeftHand 1.7362 10.0714 11.7391
RightShoulder 1.98785e-016 -4.96962e-017 1.55301e-017
RightArm -21.3903 -47.5205 22.8256
RightForeArm -70.4907 61.2914 -80.6643
RightHand 4.61767 -20.6401 -20.388
LeftUpLeg 4.1817 0.211651 -4.78263
LeftLeg 18.2957 -2.48537 5.38518
LeftFoot -14.4715 -0.0492522 -0.773221
LeftToes 1.53707e-010 -1.11459e-010 1.58109e-011
180
root 15.8696 38.7115 2.09553 52.7146 88.8744 59.8462
RightUpLeg -10.7931 4.16358 -4.31341
RightLeg 38.7543 5.73778 -3.6938
RightFoot -1.87648 -0.983419 9.99687
RightToes 4.07452e-010 -1.59028e-015 9.93923e-017
Spine -10.1688 -2.49388 -12.1306
Spine1 17.3746 -4.79294 4.42459
HEad 9.80767 9.81817 -12.8408
LeftShoulder1 9.93923e-017 -0 1.22299e-017
LeftArm -14.8501 49.6148 -29.4151
LeftForeArm -118.657 -73.8751 105.644
LeftHand 1.75902 10.2082 11.3434
RightShoulder 1.98785e-016 -4.96962e-017 1.55301e-017
RightArm -23.3132 -48.3373 30.6589
RightForeArm -68.3418 61.0767 -79.4708
RightHand 4.40322 -20.3682 -19.371
LeftUpLeg 4.26669 0.382999 -4.57806
LeftLeg 18.1873 -2.83961 5.37497
LeftFoot -14.4901 -0.0494271 -0.77172
LeftToes 1.53707e-010 -1.11459e-010 1.58109e-011
181
root 15.8997 38.7324 2.15924 59.1985 88.9771 66.1999
RightUpLeg -12.3897 3.65895 -4.1048
RightLeg 37.9587 6.60992 -2.82349
RightFoot -2.13651 -0.964586 10.0388
RightToes 4.07452e-010 -1.59028e-015 9.93923e-017
Spine -9.86476 -2.30493 -11.6551
Spine1 18.2039 -4.5256 4.08065
HEad 8.36012 10.342 -14.2284
LeftShoulder1 9.93923e-017 -0 1.22299e-017
LeftArm -15.9947 49.0438 -38.5776
LeftForeArm -99.4271 -73.5173 88.086
LeftHand 1.72696 10.1077 11.0788
RightShoulder 1.98785e-016 -4.96962e-017 1.55301e-017
RightArm -25.0742 -48.1652 37.6995
RightForeArm -61.1946 59.8913 -73.7514
RightHand 4.09783 -19.9123 -17.9932
LeftUpLeg 4.2787 0.36982 -4.49767
LeftLeg 17.9268 -2.98534 5.43059
LeftFoot -14.4977 -0.0508982 -0.91919
LeftToes 1.53707e-010 -1.11459e-010 1.58109e-011
182
root 15.9616 38.7641 2.2251 83.0588 89.1925 89.8915
RightUpLeg -13.6487 2.75859 -3.89927
RightLeg 35.8036 6.84418 -2.36571
RightFoot -2.12172 -0.986481 10.2508
RightToes 4.07452e-010 -1.59028e-015 9.93923e-017
Spine -9.18841 -2.22037 -10.8786
Spine1 18.6312 -4.29377 3.57982
HEad 6.63776 10.6775 -15.5154
LeftShoulder1 9.93923e-017 -0 1.22299e-017
LeftArm -15.9587 47.7632 -46.7173
LeftForeArm -75.2942 -70.4987 65.4843
LeftHand 1.65734 9.97972 9.64927
RightShoulder 1.98785e-016 -4.96962e-017 1.55301e-017
RightArm -25.8388 -47.3639 43.4764
RightForeArm -53.3703 57.9363 -66.6103
RightHand 3.97433 -19.6616 -17.541
LeftUpLeg 4.31219 0.215535 -4.33543
LeftLeg 17.5998 -3.2476 5.46808
LeftFoot -14.5084 -0.0532122 -1.14917
LeftToes 1.53707e-010 -1.11459e-010 1.58109e-011
